PathFileType	4	(X/Y/Z)	C:\Users\Basilio\Documents\Thesis Gigler\squatting_fais\c3dfiles\077\SLS_back_pre5\markers_experimental.trc
DataRate	CameraRate	NumFrames	NumMarkers	Units	OrigDataRate	OrigDataStartFrame	OrigNumFrames
200.000000	200.000000	4	60	mm	200.000000	197	1578
Frame#	Time	FHD			RBHD			C7			T10			CLAV			LSHO			LUUPA			LMUPA			LDUPA			LLEP			LMEP			LRAD			LUL			LRFIN			RSHO			RUPA1			RMUPA			RDUPA			RLEP			RMEP			RRAD			RUL			RUFIN			LASI			RASI			USACR			LSACR			RSACR			LTHI1			LTHI2			LTHI3			LTHI4			LLFC			LMFC			LTIB1			LTIB2			LTIB3			LTIB4			LLMAL			LHEE			LMT1			LMT2			LMT5			RTHI			RTHI2			RTHI3			RTHI4			RLFC			RMFC			RTIB1			RTIB2			RTIB3			RTIB4			RLMAL			RMMAL			RHEE			RMT1			RMT2			RMT5			LBHD			
		X1	Y1	Z1	X2	Y2	Z2	X3	Y3	Z3	X4	Y4	Z4	X5	Y5	Z5	X6	Y6	Z6	X7	Y7	Z7	X8	Y8	Z8	X9	Y9	Z9	X10	Y10	Z10	X11	Y11	Z11	X12	Y12	Z12	X13	Y13	Z13	X14	Y14	Z14	X15	Y15	Z15	X16	Y16	Z16	X17	Y17	Z17	X18	Y18	Z18	X19	Y19	Z19	X20	Y20	Z20	X21	Y21	Z21	X22	Y22	Z22	X23	Y23	Z23	X24	Y24	Z24	X25	Y25	Z25	X26	Y26	Z26	X27	Y27	Z27	X28	Y28	Z28	X29	Y29	Z29	X30	Y30	Z30	X31	Y31	Z31	X32	Y32	Z32	X33	Y33	Z33	X34	Y34	Z34	X35	Y35	Z35	X36	Y36	Z36	X37	Y37	Z37	X38	Y38	Z38	X39	Y39	Z39	X40	Y40	Z40	X41	Y41	Z41	X42	Y42	Z42	X43	Y43	Z43	X44	Y44	Z44	X45	Y45	Z45	X46	Y46	Z46	X47	Y47	Z47	X48	Y48	Z48	X49	Y49	Z49	X50	Y50	Z50	X51	Y51	Z51	X52	Y52	Z52	X53	Y53	Z53	X54	Y54	Z54	X55	Y55	Z55	X56	Y56	Z56	X57	Y57	Z57	X58	Y58	Z58	X59	Y59	Z59	X60	Y60	Z60	

198	0.985	-229.5806732177735	1868.373657226563	-896.2236938476565	-348.7041931152344	1746.245971679688	-793.2615966796877	-409.352020263672	1616.867553710938	-874.9839477539065	-439.132049560547	1281.3662109375	-866.0187988281252	-243.1788330078126	1555.846801757813	-884.108337402344	-307.4697570800782	1574.763305664063	-1081.040161132813	-386.2975463867189	1367.423950195313	-1180.69921875	-347.7861328125001	1336.784423828125	-1182.557739257813	-398.1021118164064	1301.965454101563	-1191.551025390625	-395.9071655273439	1237.557983398438	-1200.374877929688	-434.592987060547	1224.313354492188	-1135.384887695313	-312.6667175292969	942.1699829101565	-1168.984497070313	-375.8925476074219	943.1492919921877	-1220.27734375	-307.4222717285157	853.422302246094	-1213.991821289063	-268.2835693359376	1572.657836914063	-682.9898681640626	-340.3088073730469	1373.100219726563	-561.9337158203126	-303.9257202148438	1341.550415039063	-568.2697753906251	-348.8095397949219	1305.249145507813	-549.6739501953126	-350.0027465820313	1242.1181640625	-540.9907836914064	-393.9105224609376	1222.95068359375	-605.2443847656251	-311.9265136718751	946.7037353515627	-536.4126586914064	-357.7084045410157	959.2761230468752	-473.836883544922	-308.4915466308594	859.4031372070315	-490.2615661621095	-259.5353698730469	1066.482788085938	-1011.022644042969	-233.9763183593751	1098.064819335938	-726.0935058593751	-448.0718994140626	1166.407470703125	-858.479431152344	-456.3818969726564	1134.357543945313	-884.9106445312502	-454.0051269531251	1135.432983398438	-829.4250488281252	-342.4749450683594	860.6899414062502	-1072.4130859375	-321.5154113769532	780.1136474609377	-1076.252075195313	-273.5530090332032	778.2568359375002	-1071.212036132813	-354.9421691894532	730.3515014648439	-1063.069702148438	-337.1381835937501	582.5003662109376	-1048.281860351563	-323.3317871093751	546.5321655273439	-920.8599853515627	-294.0584716796876	362.0239868164063	-1014.927062988281	-328.7584533691407	324.4263610839844	-1089.194091796875	-294.4115295410157	320.1453552246094	-1057.984252929688	-291.7962646484376	238.4176330566407	-1038.321533203125	-345.7196655273438	119.3103408813477	-1091.007446289063	-396.8746032714845	84.24341583251955	-1043.152221679688	-188.2811584472657	56.35927200317384	-1024.134643554688	-181.3484497070313	58.68331909179689	-1066.509765625	-312.5507507324219	125.1808013916016	-1008.221618652344	-370.9326171875001	771.401062011719	-690.2041015625001	-345.9583435058594	711.4909057617189	-691.4512939453126	-312.5777587890626	706.8952636718751	-693.5585937500001	-385.1654052734376	641.4381713867189	-709.5665893554689	-394.1509399414064	569.8936157226564	-715.5020141601564	-358.1439819335938	557.6950073242189	-842.921569824219	-341.3120117187501	434.4960021972657	-734.4970703125001	-402.8862304687501	351.1907653808594	-708.5709838867189	-358.2439270019532	349.6349792480469	-725.3235473632814	-348.3623657226563	306.9303894042969	-766.0449829101564	-410.6639709472657	124.9542770385742	-737.2892456054689	-373.6664428710938	135.497802734375	-823.1160278320315	-463.6176757812501	102.3426513671875	-800.5960083007815	-244.0515594482422	63.68762969970705	-768.8559570312502	-253.4927978515626	62.53844070434572	-732.1992187500001	-277.4833374023438	46.32012557983399	-685.9550170898439	-369.9720153808594	1747.141479492188	-936.9793090820315	
199	0.99	-229.5520477294922	1868.078857421875	-896.132995605469	-348.7266540527344	1746.02783203125	-793.5169067382815	-408.9536437988282	1616.930419921875	-875.2861938476565	-438.9420471191407	1281.541870117188	-866.0733032226565	-242.7157135009766	1555.816772460938	-884.273864746094	-306.7925720214844	1574.562377929688	-1081.250366210938	-386.1370239257814	1367.390625	-1180.770263671875	-347.6072692871094	1336.618774414063	-1182.602416992188	-398.0126342773439	1301.978637695313	-1191.550170898438	-395.9091796875001	1237.518310546875	-1200.344116210938	-434.4912109375001	1224.267211914063	-1135.365478515625	-313.2514953613282	942.0760498046877	-1169.052124023438	-376.5149230957032	943.0083007812502	-1220.167602539063	-308.2519531250001	854.6760253906252	-1215.173706054688	-267.8588562011719	1572.807861328125	-683.1238403320314	-339.9919128417969	1373.18359375	-562.1411132812501	-303.5740661621094	1341.75390625	-568.4526367187501	-348.4868774414063	1305.409301757813	-549.9511718750001	-349.7380065917969	1242.22607421875	-541.3721313476564	-393.6643676757814	1223.127807617188	-605.6345825195314	-313.3375549316407	946.7691040039065	-536.4547119140626	-358.7546691894532	959.916198730469	-473.7032775878907	-310.4009399414063	859.5656738281252	-490.269744873047	-259.7203674316407	1066.384765625	-1011.026672363281	-234.0382843017579	1097.953735351563	-726.1641235351564	-447.9822082519532	1166.63525390625	-858.572692871094	-456.3682556152345	1134.645629882813	-884.9412231445315	-454.050262451172	1135.484985351563	-829.4493408203127	-342.3538513183594	860.6542968750002	-1072.365234375	-321.6853637695313	780.2278442382815	-1076.244262695313	-272.7012023925782	777.9923095703127	-1071.1435546875	-355.2391967773438	730.4418945312501	-1063.128173828125	-337.2715148925782	582.5534057617189	-1048.3935546875	-323.4356994628907	546.5297241210939	-920.8362426757815	-293.6632080078126	361.8248596191407	-1014.683532714844	-328.7647399902344	324.3459472656251	-1089.25244140625	-294.4784240722657	320.1223144531251	-1058.037231445313	-291.8097839355469	238.4528198242188	-1038.32080078125	-345.6837463378907	119.2796859741211	-1091.018188476563	-396.8763732910157	84.2623977661133	-1043.158813476563	-188.3151245117188	56.33798217773439	-1024.109008789063	-181.3589782714844	58.70815277099611	-1066.514526367188	-312.5312805175782	125.1820678710938	-1008.2158203125	-371.0590209960938	771.3518066406252	-690.2463378906251	-346.0169982910157	711.5664062500001	-691.3725585937501	-312.6434631347657	706.8937988281251	-693.5589599609376	-385.2473449707032	641.4429321289064	-709.5950317382814	-394.1903076171876	569.9071655273439	-715.5059204101564	-358.2388610839844	557.6932373046876	-842.9236450195315	-341.3019409179688	434.5162353515626	-734.4650878906251	-402.9215698242189	351.2034301757813	-708.5927124023439	-358.1741638183594	349.6538696289063	-725.3153686523439	-348.4273681640626	306.9501647949219	-766.0616455078126	-410.6655273437501	124.9245147705078	-737.2617187500001	-373.7422790527344	135.5491180419922	-823.1460571289065	-463.6916809082032	102.3647384643555	-800.583190917969	-244.0436401367188	63.67265701293947	-768.8850708007815	-253.4358215332032	62.58288192749025	-732.2133789062501	-277.5144348144532	46.32007598876954	-685.9733276367189	-369.5454711914063	1747.209350585938	-937.3433837890627	
200	0.995	-229.6122283935547	1868.590576171875	-896.007507324219	-348.8177490234376	1745.931396484375	-793.8147583007815	-408.7242126464845	1617.074462890625	-875.5510864257815	-438.7615356445314	1281.717041015625	-866.1508789062502	-242.2325134277344	1555.79638671875	-884.3679809570315	-306.2306518554688	1574.526245117188	-1081.543579101563	-386.0383911132814	1367.32763671875	-1180.824462890625	-347.8528747558594	1336.60693359375	-1182.819946289063	-397.9744262695314	1301.925170898438	-1191.514770507813	-395.7639160156251	1237.507934570313	-1200.265869140625	-434.4337158203126	1224.225341796875	-1135.304565429688	-313.7909851074219	941.7998657226565	-1168.99853515625	-377.2785644531251	942.8861083984377	-1220.110473632813	-309.1152648925782	854.2991333007815	-1215.107666015625	-267.2883605957032	1572.824340820313	-683.6502075195314	-339.4975280761719	1373.332275390625	-562.2436523437501	-303.1690368652344	1341.856201171875	-568.7100219726564	-348.0773315429688	1305.440795898438	-550.2360839843751	-349.3022155761719	1242.419311523438	-541.8359375000001	-393.211151123047	1223.479858398438	-606.1300659179689	-314.3618774414063	946.9108886718752	-536.4300537109376	-359.5078125000001	960.3789062500002	-473.5223693847657	-312.1557006835938	859.5270996093752	-490.3125915527345	-259.6369934082032	1066.212890625	-1011.093200683594	-234.0027160644532	1097.911010742188	-726.2262573242189	-448.0123596191407	1166.851440429688	-858.5976562500002	-456.3679809570314	1134.83544921875	-885.0168457031252	-454.0562133789064	1135.72021484375	-829.454772949219	-342.5716247558594	860.6970214843752	-1072.342041015625	-321.7121887207032	780.1530761718752	-1076.279907226563	-272.8505554199219	777.982849121094	-1071.21533203125	-355.1962890625001	730.4262084960939	-1063.106689453125	-337.2901611328126	582.5249023437501	-1048.380004882813	-323.4974670410157	546.5741577148439	-920.8343505859377	-293.6629333496094	361.7941284179688	-1014.652648925781	-328.7795410156251	324.3846130371094	-1089.236450195313	-294.4953308105469	320.1434326171876	-1058.0380859375	-291.7716064453126	238.4766845703126	-1038.31591796875	-346.5794372558594	119.6525344848633	-1091.03125	-396.8502502441407	84.26022338867189	-1043.179321289063	-188.316390991211	56.3627395629883	-1024.120849609375	-181.3659210205078	58.75613021850587	-1066.507934570313	-312.5967712402344	125.1951675415039	-1008.237854003906	-371.1324462890626	771.407409667969	-690.2684936523439	-346.1996154785157	711.4236450195314	-691.2933959960939	-312.7649841308594	706.8917236328126	-693.5114135742189	-385.3567199707032	641.4353027343751	-709.6122436523439	-394.2761535644532	569.8551635742189	-715.5404052734376	-358.2921142578126	557.6628417968751	-842.9209594726565	-341.3255920410157	434.5101013183595	-734.4046020507814	-402.9326171875001	351.1801757812501	-708.5992431640626	-358.2333068847657	349.6018676757813	-725.3257446289064	-348.3236694335938	306.7219848632813	-766.1653442382814	-410.7067871093751	124.9357833862305	-737.2808837890626	-373.7145385742188	135.4928894042969	-823.097351074219	-463.6824951171876	102.3646926879883	-800.5584106445315	-244.0789489746094	63.64887619018556	-768.8654785156252	-253.4883117675782	62.52109146118165	-732.1820068359376	-277.5095825195313	46.3106918334961	-686.0020141601564	-369.1632080078126	1747.10986328125	-937.7767333984377	
201	1	-229.6449737548829	1868.682983398438	-895.997985839844	-348.8906250000001	1745.847778320313	-794.143981933594	-408.287811279297	1617.13427734375	-875.915466308594	-438.6301574707032	1281.787841796875	-866.2309570312502	-241.8133850097657	1555.697509765625	-884.5535888671877	-305.5869140625001	1574.426513671875	-1081.713256835938	-385.9625854492189	1367.32861328125	-1180.884765625	-347.6457824707032	1336.53564453125	-1182.87841796875	-397.7659606933595	1301.829467773438	-1191.531005859375	-395.4732666015626	1237.34619140625	-1200.22021484375	-434.1273498535157	1224.14990234375	-1135.250732421875	-314.2419738769532	941.5396118164065	-1168.77880859375	-377.6899719238282	942.8444824218752	-1220.026611328125	-309.7351074218751	853.9346313476565	-1214.91650390625	-266.8974609375001	1572.98681640625	-683.8833007812501	-338.9936523437501	1373.459594726563	-562.3865966796876	-302.7168273925782	1341.90869140625	-569.0441284179689	-347.5950622558594	1305.47998046875	-550.6350708007814	-348.9159851074219	1242.51123046875	-542.2695312500001	-392.6955566406251	1223.708740234375	-606.6246337890626	-315.2672729492188	946.974304199219	-536.5498046875001	-360.2500610351563	960.6300048828127	-473.4741210937501	-313.5490112304688	859.5949707031252	-490.5471191406251	-259.6453552246094	1065.991821289063	-1011.143676757813	-234.0249633789063	1097.809936523438	-726.3138427734376	-447.9555969238282	1167.065795898438	-858.593200683594	-456.395233154297	1134.983520507813	-884.994079589844	-454.0299377441407	1135.924072265625	-829.4549560546877	-342.7276611328126	860.7382812500002	-1072.318481445313	-321.8520507812501	780.1912231445315	-1076.328247070313	-273.0554504394532	777.9807739257815	-1071.29736328125	-355.3866271972657	730.4042968750001	-1063.096557617188	-337.1966857910157	582.4572143554689	-1048.374633789063	-323.6054992675782	546.6090698242189	-920.8990478515627	-293.7453918457032	361.8099975585938	-1014.703796386719	-328.6977233886719	324.3878173828126	-1089.241333007813	-294.4414672851563	320.1399841308594	-1058.011962890625	-291.8045959472657	238.4293823242188	-1038.342529296875	-345.7026977539063	119.3542022705078	-1090.985107421875	-396.8924255371095	84.28371429443361	-1043.17919921875	-188.2829742431641	56.31853103637697	-1024.120483398438	-181.2959136962891	59.51038742065431	-1066.775024414063	-312.7053222656251	125.1243057250977	-1008.257507324219	-371.1725463867188	771.4531860351565	-690.3117065429689	-346.2302246093751	711.3861694335939	-691.4057617187501	-312.7873840332032	706.9558105468751	-693.4388427734376	-385.4549865722657	641.4562988281251	-709.6371459960939	-394.3323059082032	569.8706054687501	-715.5544433593751	-358.3247985839844	557.6463623046876	-842.9709472656252	-341.3095703125001	434.5217285156251	-734.4415893554689	-402.9621582031251	351.2360839843751	-708.5917968750001	-358.2688903808594	349.6234130859376	-725.2963867187501	-348.4832763671876	306.8188476562501	-766.0524291992189	-410.6952514648439	124.918327331543	-737.2747802734376	-373.7626647949219	135.5439147949219	-823.136901855469	-463.6679687500001	102.3927154541016	-800.581237792969	-244.0706939697266	63.681453704834	-768.8613281250002	-253.511215209961	62.52714920043947	-732.1878662109376	-277.5010070800782	46.33021545410157	-685.9642333984376	-368.9281005859376	1746.754516601563	-938.105407714844	
